<?xml version="1.0" encoding="UTF-8" standalone="no"?>
<svg
   xmlns:dc="http://purl.org/dc/elements/1.1/"
   xmlns:cc="http://creativecommons.org/ns#"
   xmlns:rdf="http://www.w3.org/1999/02/22-rdf-syntax-ns#"
   xmlns:svg="http://www.w3.org/2000/svg"
   xmlns="http://www.w3.org/2000/svg"
   viewBox="0 0 8286.667 3332"
   height="3332"
   width="8286.667"
   xml:space="preserve"
   id="svg2"
   version="1.1"><metadata
     id="metadata8"><rdf:RDF><cc:Work
         rdf:about=""><dc:format>image/svg+xml</dc:format><dc:type
           rdf:resource="http://purl.org/dc/dcmitype/StillImage" /></cc:Work></rdf:RDF></metadata><defs
     id="defs6" /><g
     transform="matrix(1.3333333,0,0,-1.3333333,0,3332)"
     id="g10"><g
       transform="scale(0.1)"
       id="g12"><g
         transform="scale(3.81288)"
         id="g14"><path
           id="path16"
           style="fill:#3d1607;fill-opacity:1;fill-rule:nonzero;stroke:none"
           d="m 16039.3,4834.9 c -231.9,0 -537.6,-162.28 -628.9,-237.21 -58,-93.74 -281.8,-285.21 -107.4,-391.45 199.9,99.41 444.1,259.25 796.4,259.25 34.2,0 69.5,-1.5 105.8,-4.72 114.8,54.55 117.6,225.55 38.1,303.95 -50.8,50.35 -122.9,70.18 -204,70.18 z" /></g><g
         transform="scale(1.56524)"
         id="g18"><path
           id="path20"
           style="fill:#3d1607;fill-opacity:1;fill-rule:nonzero;stroke:none"
           d="m 15309.6,10880.1 c -116.1,0 -230.2,-13 -331.3,-38.7 C 13512.6,10455.3 11988.8,8971.58 11283,7453.32 10611.5,6013.3 10982.7,3817.65 12738.1,3817.65 h 1 c 96.8,0.05 197.7,6.76 302.9,20.64 1230.4,161.94 2017.9,1147.34 2589.5,1999.89 264.4,387.52 631.2,793.03 668.5,1240.07 -106.9,74.13 -208.5,105.09 -305.2,105.09 -372.4,0 -670.4,-459.94 -909.9,-680.82 -343.3,-318.32 -740.5,-690.65 -1143.2,-928.68 -242.4,-143.02 -486.6,-226.95 -704.7,-237.78 h -0.1 c -16,-0.79 -31.9,-1.2 -47.6,-1.2 -462.2,0 -793.3,345.44 -711.9,1177.34 103.7,1072.62 989.5,2358.36 1700.9,3014.39 232.5,217.99 673.5,565.91 1004.8,565.91 49.3,0 96.3,-7.7 139.8,-24.8 264.3,-103.78 110.7,-456.69 346,-595.1 76.4,-46.64 143.8,-67.38 202.6,-67.45 h 0.3 c 390.9,0 402.2,914.45 192.9,1199.55 -134.1,186.2 -451.4,275.4 -755.1,275.4 z" /></g><g
         transform="scale(1.39825)"
         id="g22"><path
           id="path24"
           style="fill:#3d1607;fill-opacity:1;fill-rule:nonzero;stroke:none"
           d="m 12267.4,16300 c -146.2,0 -296.3,-24.3 -428.6,-67.5 -762.3,-243.2 -1430,-1062.8 -1959.9,-1716.6 C 8253.65,12497.2 6998.74,9672.79 6039.7,7293.05 c -49.59,1873.1 -9.3,3873.25 -13.91,5726.25 -1.57,536 9.27,1417.6 -467.92,1495.1 -25.05,4 -50.2,6 -75.45,6 -485.34,0 -1000.83,-722.2 -1318.95,-1087.5 C 2942.63,12024.6 2075.03,10523.4 1399.52,8707.57 750.325,6967.7 242.184,4924.18 88.8109,2535.15 51.6299,1949.51 -131.219,445.113 186.391,206.536 280.767,135.462 398.909,105.067 529.457,105.067 c 563.873,0 1359.203,566.731 1471.173,869.925 161.15,443.108 55.79,1109.318 99.15,1777.058 37.22,611.98 60.43,1312.24 96.08,1777.05 171.97,2427.76 653.83,4364.39 1388.2,6096.5 350.11,836.6 676.97,1761.4 1378.68,2302.1 h 0.17 C 4733.63,10960.1 4778.55,8436.36 4801.79,5897.14 4808,5116.28 4673.23,4000.79 4935.05,3529.81 c 115.83,-207.46 370.72,-285.91 646.41,-286.02 h 0.58 c 306.77,0 639.19,96.94 834.17,220.95 700.28,3349.59 1794.09,6494.68 3332.57,8996.76 512.82,836.6 1020.92,1694.9 1800.12,2227.8 h 0.1 C 9714.67,11454.3 8910.62,5686.36 9936.23,886.681 c 35.09,-234.693 358.37,-482.632 782.27,-482.632 119,0 245.9,19.503 376.6,64.308 540.7,184.388 1202.3,780.863 1092.3,1301.433 -278.9,1451.7 -466.4,2847.62 -562.4,4590.6 -153.4,2788.72 154.9,5177.81 726.6,7390.11 125.5,467.9 677.1,1625.3 588.8,2138.1 -50.1,293.9 -351.9,411.4 -673,411.4 z" /></g><g
         transform="scale(3.73003)"
         id="g26"><path
           id="path28"
           style="fill:#3d1607;fill-opacity:1;fill-rule:nonzero;stroke:none"
           d="m 16137.2,1830.95 v -209.14 h 37.1 v 82.28 l 28.8,-0.01 c 19.5,0 33.3,-2.29 41.1,-6.6 13.2,-8.07 19.5,-23.6 19.5,-47.76 v -16.68 l 0.9,-6.62 c 0,-0.87 0.3,-1.73 0.3,-2.3 0.3,-0.87 0.6,-1.44 0.6,-2.31 h 34.5 l -1.2,2.88 c -0.8,1.73 -1.4,5.17 -1.7,10.64 -0.6,5.75 -0.6,10.65 -0.6,15.83 v 14.95 c 0,10.93 -3.7,21.59 -11.5,32.51 -7.4,11.22 -19.5,17.84 -35.6,20.43 12.9,2.29 22.7,5.47 30.2,10.06 13.5,8.93 20.4,22.45 20.4,41.43 0,26.47 -10.9,43.73 -32.5,52.64 -12.1,5.18 -31.1,7.77 -57.3,7.77 z m 37.1,-25.02 31.3,-0.01 c 20.5,0 35.1,-2.87 44.6,-8.06 9.2,-4.89 13.8,-15.24 13.8,-30.49 0,-16.11 -7.2,-27.04 -21.5,-32.51 -7.8,-3.16 -19.6,-4.88 -35.1,-4.88 h -33.1 z" /></g><g
         transform="scale(3.81288)"
         id="g30"><path
           id="path32"
           style="fill:#3d1607;fill-opacity:1;fill-rule:nonzero;stroke:none"
           d="m 15701.6,4007.82 c -15.6,0 -31.8,-0.52 -48.6,-1.57 -720.5,-44.32 -1463,-688.04 -1713,-1363.01 -43.8,-115.34 -71,-253.4 -80.7,-363.62 -43.5,-533.96 313.3,-714.89 720.2,-714.89 342.5,0 720.5,128.21 925.2,281.95 173.8,131.25 439.7,332.93 342.6,611.89 h -0.1 c -210.1,-65.91 -236.9,-162.49 -415.3,-250.54 -116.6,-56.13 -413.6,-152.71 -658.8,-152.71 -99.8,0 -191.1,16 -258.2,57.25 -190.9,117.05 -55.1,617.02 92.1,667.59 15.4,4.99 32.2,6.99 50,6.99 69.2,0 151.8,-30.53 214.2,-33.7 18.4,-0.77 37.2,-1.14 56.3,-1.14 304.4,0 682.6,97.25 886.2,270.46 268,229.22 486.9,985.05 -112.1,985.05 z m -77,-277.16 c 279.7,-0.04 102.8,-399.23 -104.6,-522.11 -173.3,-102.58 -371.9,-124.42 -624.9,-124.42 -35.7,0 -72.4,0.44 -110.3,1.13 135.8,207.94 448.9,559.64 730.7,630.08 42.2,10.5 78.4,15.31 109,15.32 z" /></g><g
         transform="scale(3.75393)"
         id="g34"><path
           id="path36"
           style="fill:#3d1607;fill-opacity:1;fill-rule:nonzero;stroke:none"
           d="m 16110.8,1903.62 c -52,0 -96.3,-18.58 -133.2,-55.17 -36.9,-37.16 -55.2,-81.47 -55.2,-133.48 0,-52.6 18,-97.18 54.6,-134.06 36.9,-37.16 81.5,-56.03 133.8,-56.03 52.3,0 97.2,18.87 134,56.03 36.9,36.88 55.2,81.74 55.2,134.06 0,52.31 -18.3,96.6 -55.2,133.48 -36.8,36.59 -81.7,55.17 -134,55.17 z m 0,-25.73 c 44.9,0 83.4,-16 115.2,-48.02 31.4,-32.01 47.4,-70.02 47.4,-115.18 0,-45.46 -16,-83.76 -47.4,-116.06 -31.5,-31.73 -70.1,-47.73 -115.2,-47.73 -45.2,0 -83.5,16 -115.2,47.73 -31.5,32.3 -47.2,70.6 -47.2,116.06 0,45.16 15.7,83.17 47.5,115.18 31.7,32.02 70,48.02 114.9,48.02 z" /></g><g
         transform="scale(3.73077)"
         id="g38"><path
           id="path40"
           style="fill:#3d1607;fill-opacity:1;fill-rule:nonzero;stroke:none"
           d="m 10369.1,6697.83 c -57.1,0 -116.9,-3.38 -179.4,-10.18 -389.07,-41.81 -772.9,-260.72 -1063.8,-439.56 -582.98,-360.01 -1041.13,-825.12 -1409.27,-1405.2 -188.14,-299.04 -382.09,-629.44 -487.76,-922.67 -358.73,-993.64 -131.58,-2275.14 961.69,-2275.14 44.59,0 90.6,2.13 138.09,6.5 779.25,73.16 1316.95,528.4 1882.55,862.87 68.5,-246.79 204.9,-459.89 431.4,-498.22 43.5,-7.75 87.3,-11.35 131,-11.35 463.9,0 928.8,405.46 1158,570.5 l 0.1,-0.01 c -35.2,-298.14 93.7,-459.6 290.9,-459.6 17.5,0 35.5,1.26 54,3.82 209.6,29.03 425,320.53 563.8,494.15 178.8,223.51 328.6,458.62 449.4,596.25 v 0 c -166.6,-660.76 -288.6,-1365.66 -450.6,-2032.23 l -61.5,-323.422 v -0.01 c -23.8,-131.225 -52.8,-274.646 -81.9,-420.393 -18.6,-126.002 83.1,-344.3286 314.8,-418.6587 29,-9.37102 58.9,-13.53927 88.6,-13.53927 h 0.7 c 143.2,0.31621 281.2,97.08217 286.9,174.38497 120.2,1093.968 220.7,2411.478 512.2,3276.088 58,171.29 165.4,262.45 309.5,358.27 287.4,191.62 623.6,248.52 963.9,364.65 -18.9,203.19 -162.5,264.43 -339.5,264.43 -214.5,0 -478.3,-89.97 -629.1,-126.23 133,362.91 293.2,765.89 502.3,1114.87 247.9,416.91 545.2,868.66 1128.2,899.43 45.3,-77.8 29.6,-218.9 116.7,-250.83 52.3,0.57 104.5,0.57 156.2,1.16 192.8,236.33 143.5,531.3 -174.2,562.65 -25.6,2.37 -51.2,3.5 -76.8,3.51 l -0.1,-0.01 c 0,0.01 0,0.01 0.1,0.01 v -0.01 c -395.5,0.01 -786.8,-271.04 -1014.2,-474.99 -293.9,-258.98 -506.4,-574.27 -689.3,-878.54 -572.5,-949.96 -821.6,-2042.18 -1726.9,-2503.81 -98.1,306.01 81.3,575.43 206.7,845.44 133,288.01 414,960.41 -137,975.51 -13.2,0.37 -26.3,0.55 -39.5,0.55 -468.7,0 -923.9,-228.59 -1279.2,-471.46 -450.6,-311.24 -767.6,-680.53 -925.6,-1207.78 -368.98,-289.89 -831.68,-685.57 -1385.82,-685.57 -88.52,0 -179.36,10.1 -272.53,32.32 -270.59,65.05 -558.6,282.79 -602.16,571.96 -101.02,674.14 221.83,1544.56 508.67,2076.44 312.4,585.89 765.9,1111.38 1281.52,1300.68 136.19,49.92 331.32,94.35 510.22,94.35 149.9,0 288.4,-31.18 371.2,-116.41 113.8,-117.29 14.6,-364.08 117.9,-501.11 35.8,-47.62 101.2,-69.44 174.7,-69.44 49.2,0 102.1,9.8 152.2,28.21 155.3,669.8 -141.6,1037.37 -738,1037.37 z m 1778.7,-2407.84 c 72.2,0 137.2,-21.78 180.5,-82.92 20.3,-373.94 -195.7,-665.44 -390.3,-936.02 -178.8,-252.6 -468.5,-517.96 -747.8,-599.83 -65.2,-19.29 -121.1,-28.1 -168.8,-28.14 l -0.3,-0.01 c -319.7,0.01 -269.1,394.85 -120.1,676.75 194.5,365.82 610.8,756.59 958.1,897.69 87.2,35.22 194.2,72.48 288.7,72.48 z" /></g></g></g></svg>