<?xml version="1.0" encoding="utf-8"?>
<!-- Generator: Adobe Illustrator 26.2.1, SVG Export Plug-In . SVG Version: 6.00 Build 0)  -->
<svg version="1.1" id="Layer_1" xmlns="http://www.w3.org/2000/svg" xmlns:xlink="http://www.w3.org/1999/xlink" x="0px" y="0px"
	 viewBox="0 0 42 42" enable-background="new 0 0 42 42" xml:space="preserve">
<path fill="#FDCB00" d="M39.14,20.06c-1.76-7.85-4.71-16.39-9.51-16.39c-4.76,0-7.45,7.85-8.63,11.84
	c-1.18-3.99-3.87-11.84-8.63-11.84c-4.8,0-7.75,8.54-9.51,16.39S1.17,38.34,1.17,38.34h4.98c0,0,0.48-32.2,6.16-32.2
	c5.97,0,6.23,29.71,6.23,29.71s0.01,0,0.02,0c0.24,0,3.15,0,4.89,0c0.01,0,0.02,0,0.02,0s0.25-29.71,6.23-29.71
	c5.68,0,6.16,32.2,6.16,32.2h4.98C40.83,38.34,40.9,27.91,39.14,20.06z"/>
</svg>
