<svg aria-hidden="true" style="position: absolute; width: 0; height: 0; overflow: hidden;" version="1.1" xmlns="http://www.w3.org/2000/svg" xmlns:xlink="http://www.w3.org/1999/xlink">
<defs>
<symbol id="icon-arrow-left" viewBox="0 0 20 20">
<path d="M2.5 10l6.5-6.5v3.5h8v6h-8v3.5l-6.5-6.5z"></path>
</symbol>
<symbol id="icon-controller-play" viewBox="0 0 20 20">
<path d="M15 10.001c0 0.299-0.305 0.514-0.305 0.514l-8.561 5.303c-0.624 0.409-1.134 0.106-1.134-0.669v-10.297c0-0.777 0.51-1.078 1.135-0.67l8.561 5.305c-0.001 0 0.304 0.215 0.304 0.514z"></path>
</symbol>
<symbol id="icon-dots-three-horizontal" viewBox="0 0 20 20">
<path d="M10.001 7.8c-1.215 0-2.201 0.985-2.201 2.2s0.986 2.2 2.201 2.2c1.215 0 2.199-0.985 2.199-2.2s-0.984-2.2-2.199-2.2zM3.001 7.8c-1.215 0-2.201 0.985-2.201 2.2s0.986 2.2 2.201 2.2c1.215 0 2.199-0.986 2.199-2.2s-0.984-2.2-2.199-2.2zM17.001 7.8c-1.215 0-2.201 0.985-2.201 2.2s0.986 2.2 2.201 2.2c1.215 0 2.199-0.985 2.199-2.2s-0.984-2.2-2.199-2.2z"></path>
</symbol>
<symbol id="icon-clock" viewBox="0 0 20 20">
<path d="M10 0.4c-5.303 0-9.601 4.298-9.601 9.6 0 5.303 4.298 9.601 9.601 9.601 5.301 0 9.6-4.298 9.6-9.601s-4.299-9.6-9.6-9.6zM9.999 17.6c-4.197 0-7.6-3.402-7.6-7.6 0-4.197 3.402-7.6 7.6-7.6 4.197 0 7.601 3.402 7.601 7.6 0 4.197-3.404 7.6-7.601 7.6zM11 9.33v-5.33h-2v6.245l-3.546 2.048 1 1.732 4.115-2.377c0.238-0.137 0.431-0.473 0.431-0.748v-0.168l4.24-4.166c-0.198-0.271-0.411-0.529-0.647-0.766l-3.593 3.53z"></path>
</symbol>
<symbol id="icon-credit-card" viewBox="0 0 20 20">
<path d="M18 3h-16c-1.101 0-2 0.9-2 2v10c0 1.1 0.899 2 2 2h16c1.1 0 2-0.9 2-2v-10c0-1.1-0.9-2-2-2zM18 15h-16v-6h16v6zM18 6h-16v-1h16v1zM4 11.1v0.6h0.6v-0.6h-0.6zM7.6 12.299v0.601h1.2v-0.601h0.6v-0.6h0.6v-0.6h-1.2v0.6h-0.601v0.6h-0.599zM10 12.9v-0.601h-0.601v0.601h0.601zM7 12.9v-0.601h-1.2v0.601h1.2zM7.6 11.699h0.6v-0.6h-1.2v1.199h0.6v-0.599zM5.199 12.299h0.601v-0.6h0.6v-0.6h-1.2v0.6h-0.6v0.6h-0.6v0.601h1.199v-0.601z"></path>
</symbol>
<symbol id="icon-drink" viewBox="0 0 32 32">
<path d="M25 8.918h-18.045l0.018-1.942h1.441l3.052-3.007h9.148l2.989 3.007h1.441l-0.044 1.942zM17.544 5.974h-3.008v1.002h3.008v-1.002zM23.656 13.994h-15.246l-0.39-4.010h16.040l-0.404 4.010zM23.245 22.953h-14.474l-0.751-7.957h16.040l-0.815 7.957zM22.243 28.029c0 0.553-0.449 1.002-1.003 1.002h-10.463c-0.554 0-1.003-0.449-1.003-1.002l-0.396-4.073h13.274l-0.409 4.073z"></path>
</symbol>
<symbol id="icon-alarmclock" viewBox="0 0 32 32">
<path d="M27.229 14.775c-1.374-3.807-4.725-6.729-8.891-7.659 1.067-1.532 2.836-2.539 4.845-2.539 3.264 0 5.909 2.646 5.909 5.91 0 1.694-0.722 3.211-1.863 4.288zM15.864 4.799v3.716c5.67 0.231 10.199 4.888 10.199 10.614 0 2.392-0.799 4.592-2.13 6.367l2.464 4.269-2.047 1.183-2.109-3.654c-1.846 1.543-4.221 2.474-6.814 2.474-2.579 0-4.943-0.919-6.784-2.445l-2.165 3.747-2.047-1.183 2.516-4.356c-1.348-1.782-2.156-3.995-2.156-6.402 0-5.688 4.468-10.319 10.084-10.608v-3.722c-0.573-0.205-0.989-0.74-0.989-1.385 0-0.82 0.665-1.484 1.484-1.484s1.485 0.665 1.485 1.484c-0.001 0.645-0.417 1.18-0.991 1.385zM7.153 19.129c0 4.57 3.704 8.273 8.273 8.273s8.273-3.703 8.273-8.273c0-4.568-3.705-8.272-8.273-8.272s-8.273 3.704-8.273 8.272zM17.906 20.918h-2.969c-0.547 0-0.99-0.443-0.99-0.99v-3.959c0-0.547 0.443-0.99 0.99-0.99 0.546 0 0.989 0.443 0.989 0.99v2.969h1.979c0.547 0 0.99 0.443 0.99 0.99s-0.442 0.99-0.989 0.99zM3.772 14.775c-1.142-1.078-1.864-2.594-1.864-4.288 0-3.264 2.646-5.91 5.91-5.91 2.008 0 3.776 1.007 4.845 2.539-4.166 0.93-7.517 3.852-8.891 7.659z"></path>
</symbol>
<symbol id="icon-menu" viewBox="0 0 32 32">
<path d="M2 6h28v6h-28zM2 14h28v6h-28zM2 22h28v6h-28z"></path>
</symbol>
</defs>
</svg>
