<svg version="1.0" xmlns="http://www.w3.org/2000/svg" viewBox="0 0 8286.7 3332" style="enable-background:new 0 0 8286.7 3332" xml:space="preserve" id='main'><path d="M21385.7 2292.3c-309.2 0-716.8 216.4-838.5 316.3-77.3 125-375.7 380.3-143.2 521.9 266.5-132.5 592.1-345.7 1061.9-345.7 45.6 0 92.7 2 141.1 6.3 153.1-72.7 156.8-300.7 50.8-405.3-67.8-67.1-163.9-93.5-272.1-93.5z" transform="rotate(.186) scale(.38129)"/><path d="M20412.8 6780.7c-154.8 0-306.9 17.3-441.7 51.6-1954.3 514.8-3986 2493.1-4927.1 4517.4-895.3 1920-400.4 4847.6 1940.1 4847.6h1.3c129.1-.1 263.6-9 403.9-27.5 1640.5-215.9 2690.5-1529.8 3452.7-2666.5 352.5-516.7 841.6-1057.4 891.3-1653.4-142.5-98.8-278-140.1-406.9-140.1-496.5 0-893.9 613.3-1213.2 907.8-457.7 424.4-987.3 920.9-1524.3 1238.2-323.2 190.7-648.8 302.6-939.6 317h-.1c-21.3 1.1-42.5 1.6-63.5 1.6-616.3 0-1057.7-460.6-949.2-1569.8 138.3-1430.2 1319.3-3144.5 2267.9-4019.2 310-290.7 898-754.5 1339.7-754.5 65.7 0 128.4 10.3 186.4 33.1 352.4 138.4 147.6 608.9 461.3 793.5 101.9 62.2 191.7 89.8 270.1 89.9h.4c521.2 0 536.3-1219.3 257.2-1599.4-178.7-248.4-601.8-367.3-1006.7-367.3z" transform="scale(.15652)"/><path d="M16356.5 2096.5c-194.9 0-395.1 32.4-571.5 90-1016.4 324.3-1906.7 1417.1-2613.2 2288.8-2167 2691.6-3840.2 6457.5-5118.9 9630.5-66.1-2497.5-12.4-5164.3-18.5-7635-2.1-714.7 12.4-1890.1-623.9-1993.5-33.4-5.3-66.9-8-100.6-8-647.1 0-1334.4 962.9-1758.6 1450C3923.5 7797 2766.7 9798.6 1866 12219.7c-865.6 2319.8-1543.1 5044.5-1747.6 8229.9-49.6 780.9-293.4 2786.7 130.1 3104.8 125.8 94.8 283.4 135.3 457.4 135.3 751.8 0 1812.3-755.6 1961.6-1159.9 214.9-590.8 74.4-1479.1 132.2-2369.4 49.6-816 80.6-1749.7 128.1-2369.4 229.3-3237 871.8-5819.2 1850.9-8128.7 466.8-1115.5 902.6-2348.5 1838.2-3069.5h.2c-305.7 2623.5-245.8 5988.5-214.8 9374.1 8.3 1041.1-171.4 2528.5 177.7 3156.4 154.4 276.6 494.3 381.2 861.9 381.4h.8c409 0 852.3-129.3 1112.2-294.6 933.7-4466.1 2392.1-8659.6 4443.4-11995.7 683.8-1115.5 1361.2-2259.9 2400.2-2970.4h.1c-2445.8 4313.3-3517.8 12003.9-2150.4 18403.5 46.8 312.9 477.8 643.5 1043 643.5 158.7 0 327.9-26 502.1-85.7 720.9-245.8 1603.1-1041.2 1456.4-1735.2-371.9-1935.6-621.9-3796.8-749.9-6120.8-204.5-3718.3 206.5-6903.7 968.8-9853.5 167.3-623.9 902.8-2167.1 785.1-2850.8-66.6-391.9-469-548.5-897.2-548.5z" transform="scale(.13983)"/><path d="M21516.3 6491.6v278.9h49.5v-109.7h38.4c26 0 44.4 3.1 54.8 8.8 17.6 10.8 26 31.5 26 63.7v22.2l1.2 8.8c0 1.2.4 2.3.4 3.1.4 1.2.8 1.9.8 3.1h46l-1.6-3.8c-1.1-2.3-1.9-6.9-2.3-14.2-.8-7.7-.8-14.2-.8-21.1v-19.9c0-14.6-4.9-28.8-15.3-43.3-9.9-15-26-23.8-47.5-27.2 17.2-3.1 30.3-7.3 40.3-13.4 18-11.9 27.2-29.9 27.2-55.2 0-35.3-14.5-58.3-43.3-70.2-16.1-6.9-41.5-10.4-76.4-10.4h-97.4zm49.4 33.4h41.7c27.3 0 46.8 3.8 59.5 10.7 12.3 6.5 18.4 20.3 18.4 40.7 0 21.5-9.6 36.1-28.7 43.3-10.4 4.2-26.1 6.5-46.8 6.5h-44.1V6525z" transform="scale(.373)"/><path d="M20935.5 3395c-20.8 0-42.4.7-64.8 2.1-960.7 59.1-1950.7 917.4-2284 1817.3-58.4 153.8-94.7 337.9-107.6 484.8-58 711.9 417.7 953.2 960.3 953.2 456.7 0 960.7-170.9 1233.6-375.9 231.7-175 586.3-443.9 456.8-815.9h-.1c-280.1 87.9-315.9 216.7-553.7 334.1-155.5 74.8-551.5 203.6-878.4 203.6-133.1 0-254.8-21.3-344.3-76.3-254.5-156.1-73.5-822.7 122.8-890.1 20.5-6.7 42.9-9.3 66.7-9.3 92.3 0 202.4 40.7 285.6 44.9 24.5 1 49.6 1.5 75.1 1.5 405.9 0 910.1-129.7 1181.6-360.6 357.2-305.6 649-1313.4-149.6-1313.4zm-102.7 369.6c372.9.1 137.1 532.3-139.5 696.1-231.1 136.8-495.9 165.9-833.2 165.9-47.6 0-96.5-.6-147.1-1.5 181.1-277.3 598.5-746.2 974.3-840.1 56.3-14 104.5-20.4 145.3-20.4h.2z" transform="rotate(.186) scale(.38129)"/><path d="M21481.1 6337.9c-69.3 0-128.4 24.8-177.6 73.6-49.2 49.5-73.6 108.6-73.6 178 0 70.1 24 129.6 72.8 178.7 49.2 49.5 108.7 74.7 178.4 74.7s129.6-25.2 178.7-74.7c49.2-49.2 73.6-109 73.6-178.7 0-69.7-24.4-128.8-73.6-178-49.1-48.9-109-73.6-178.7-73.6zm0 34.3c59.9 0 111.2 21.3 153.6 64 41.9 42.7 63.2 93.4 63.2 153.6 0 60.6-21.3 111.7-63.2 154.7-42 42.3-93.5 63.6-153.6 63.6-60.3 0-111.3-21.3-153.6-63.6-42-43.1-62.9-94.1-62.9-154.7 0-60.2 20.9-110.9 63.3-153.6 42.2-42.7 93.3-64 153.2-64z" transform="scale(.3754)"/><path d="M13825.5.7c-76.1 0-155.9 4.5-239.2 13.6-518.8 55.7-1030.5 347.6-1418.4 586.1-777.3 480-1388.2 1100.2-1879 1873.6-250.9 398.7-509.5 839.3-650.3 1230.2-478.3 1324.9-175.4 3033.5 1282.3 3033.5 59.5 0 120.8-2.8 184.1-8.7 1039-97.5 1755.9-704.5 2510.1-1150.5 91.3 329.1 273.2 613.2 575.2 664.3 58 10.3 116.4 15.1 174.7 15.1 618.5 0 1238.4-540.6 1544-760.7h.1c-46.9 397.5 124.9 612.8 387.9 612.8 23.3 0 47.3-1.7 72-5.1 279.5-38.7 566.7-427.4 751.7-658.9 238.4-298 438.1-611.5 599.2-795-222.1 881-384.8 1820.9-600.8 2709.6l-82 431.2c-31.7 175-70.4 366.2-109.2 560.5-24.8 168 110.8 459.1 419.7 558.2 38.7 12.5 78.5 18.1 118.1 18.1h.9c190.9-.4 374.9-129.4 382.5-232.5 160.3-1458.6 294.3-3215.3 682.9-4368.1 77.3-228.4 220.5-349.9 412.7-477.7 383.2-255.5 831.5-331.4 1285.2-486.2-25.2-270.9-216.7-352.6-452.7-352.6-286 0-637.7 120-838.8 168.3 177.3-483.9 390.9-1021.2 669.7-1486.5 330.5-555.9 726.9-1158.2 1504.3-1199.2 60.4 103.7 39.5 291.9 155.6 334.4 69.7-.8 139.3-.8 208.3-1.5 257.1-315.1 191.3-708.4-232.3-750.2-34.1-3.2-68.3-4.7-102.4-4.7h-.1.1c-527.3 0-1049.1 361.4-1352.3 633.3-391.9 345.3-675.2 765.7-919.1 1171.4-763.3 1266.6-1095.5 2722.9-2302.5 3338.4-130.8-408 108.4-767.2 275.6-1127.3 177.3-384 552-1280.5-182.7-1300.7-17.6-.5-35.1-.7-52.7-.7-624.9 0-1231.9 304.8-1705.6 628.6-600.8 415-1023.5 907.4-1234.1 1610.4-492 386.5-1108.9 914.1-1847.8 914.1-118 0-239.1-13.5-363.4-43.1-360.8-86.7-744.8-377.1-802.9-762.6-134.7-898.9 295.8-2059.4 678.2-2768.6 416.5-781.2 1021.2-1481.8 1708.7-1734.2 181.6-66.6 441.8-125.8 680.3-125.8 199.9 0 384.5 41.6 494.9 155.2 151.7 156.4 19.5 485.4 157.2 668.1 47.7 63.5 134.9 92.6 232.9 92.6 65.6 0 136.1-13.1 202.9-37.6C15016.5 490.8 14620.7.7 13825.5.7zm2371.6 3210.4c96.3 0 182.9 29 240.7 110.6 27.1 498.6-260.9 887.3-520.4 1248-238.4 336.8-624.7 690.6-997.1 799.8-86.9 25.7-161.5 37.5-225.1 37.5h-.4c-426.3 0-358.8-526.5-160.1-902.3 259.3-487.8 814.4-1008.8 1277.5-1196.9 116.2-47 258.9-96.7 384.9-96.7z" transform="scale(.37308)"/></svg>